<?xml version="1.0" standalone="no"?>
<!DOCTYPE svg PUBLIC "-//W3C//DTD SVG 20010904//EN"
 "http://www.w3.org/TR/2001/REC-SVG-20010904/DTD/svg10.dtd">
<svg version="1.0" xmlns="http://www.w3.org/2000/svg"
 width="905.000000pt" height="905.000000pt" viewBox="0 0 905.000000 905.000000"
 preserveAspectRatio="xMidYMid meet">
<metadata>
Created by potrace 1.15, written by Peter Selinger 2001-2017
</metadata>
<g transform="translate(0.000000,905.000000) scale(0.100000,-0.100000)"
fill="#000000" stroke="none">
<path d="M0 4525 l0 -4525 4525 0 4525 0 0 4525 0 4525 -4525 0 -4525 0 0
-4525z m8872 10 l3 -4300 -4344 3 c-2628 1 -4348 -2 -4355 -7 -8 -7 -10 1150
-8 4295 l2 4304 4328 2 c2380 2 4337 3 4349 3 l23 0 2 -4300z"/>
<path d="M1525 8653 c-68 -28 -196 -116 -290 -200 -141 -125 -225 -238 -335
-449 -48 -92 -51 -103 -47 -154 3 -30 18 -93 35 -140 77 -219 159 -369 388
-711 208 -309 272 -424 305 -546 33 -119 29 -161 -25 -276 -26 -54 -61 -140
-77 -189 -30 -90 -31 -93 -28 -276 4 -230 19 -374 69 -662 21 -124 44 -261 50
-305 29 -203 122 -575 169 -679 17 -38 43 -75 67 -95 94 -79 514 -256 689
-290 79 -16 125 -31 125 -40 0 -4 -23 -21 -52 -37 -28 -16 -68 -38 -87 -49
-196 -110 -551 -360 -738 -520 -95 -81 -110 -108 -78 -135 21 -17 37 -9 184
94 291 205 618 417 819 530 122 68 111 69 263 -29 l103 -67 -49 -42 c-175
-146 -372 -344 -517 -521 -185 -226 -228 -303 -175 -313 24 -5 28 -1 250 238
240 260 544 560 566 560 18 0 92 -73 156 -152 l37 -48 -99 -112 c-240 -271
-435 -559 -590 -871 -59 -118 -64 -152 -23 -152 26 0 61 49 329 460 120 184
205 306 270 386 25 31 55 67 66 81 59 74 106 121 114 112 5 -5 44 -58 87 -119
99 -140 292 -372 376 -451 56 -54 75 -65 145 -87 177 -56 291 -72 513 -71 229
0 359 17 445 59 99 48 363 321 539 558 104 140 78 145 233 -48 95 -117 221
-302 507 -738 80 -122 100 -148 118 -145 47 7 44 29 -25 164 -146 292 -351
593 -582 859 -38 44 -75 86 -82 93 -7 7 -13 17 -13 21 0 16 65 97 122 154 l59
58 42 -37 c140 -124 276 -263 571 -581 98 -106 186 -193 195 -193 20 0 41 19
41 36 0 15 -176 250 -255 341 -78 89 -340 351 -433 432 -70 62 -73 65 -55 82
25 24 214 139 229 139 14 0 186 -97 332 -187 131 -81 374 -244 586 -392 87
-61 167 -111 178 -111 10 0 23 11 30 25 14 31 9 37 -97 124 -231 192 -442 341
-685 486 -91 54 -171 104 -179 110 -11 11 6 17 85 35 107 24 428 125 509 160
143 62 170 79 203 133 48 81 87 174 140 340 59 183 68 220 131 592 74 430 104
668 105 825 1 125 -2 142 -31 230 -37 113 -62 178 -104 268 -29 61 -31 72 -25
139 12 148 75 272 330 652 153 229 215 331 275 455 88 181 115 252 135 346 12
60 12 69 -7 120 -28 76 -104 212 -179 317 -74 105 -246 280 -343 349 l-70 49
-85 -2 c-164 -3 -506 -98 -709 -198 -50 -25 -94 -45 -97 -45 -4 0 -41 -16 -83
-36 -239 -114 -339 -157 -361 -157 -14 1 -83 17 -155 36 -71 19 -227 58 -345
85 -1004 236 -1074 247 -1315 208 -55 -9 -144 -23 -199 -32 -118 -18 -192 -33
-391 -79 -472 -109 -628 -145 -700 -160 -44 -10 -115 -28 -158 -42 l-79 -24
-56 27 c-32 15 -86 40 -122 56 -75 35 -124 57 -305 140 -211 97 -383 163 -521
202 -164 46 -208 51 -259 29z m147 -342 c175 -60 796 -343 813 -371 3 -5 -9
-38 -28 -72 -56 -103 -102 -188 -193 -360 -48 -90 -102 -192 -122 -228 -19
-36 -44 -82 -55 -102 -37 -67 -70 -91 -135 -96 -122 -9 -321 104 -479 270 -63
68 -303 429 -303 458 0 20 46 97 77 129 8 7 41 50 75 95 144 189 242 296 274
296 11 0 46 -9 76 -19z m5701 -12 c92 -75 377 -444 377 -487 0 -26 -67 -138
-209 -345 -176 -261 -513 -452 -641 -365 -35 24 -57 62 -252 428 -33 63 -95
178 -136 254 l-74 139 23 18 c32 25 331 177 449 229 52 23 109 48 125 56 91
42 253 104 275 104 14 0 42 -14 63 -31z m-2772 -108 c79 -11 207 -34 284 -51
77 -17 199 -44 270 -60 72 -16 204 -46 295 -68 91 -22 237 -56 325 -77 233
-55 264 -75 363 -230 25 -38 59 -92 77 -120 40 -62 60 -98 198 -355 60 -113
121 -225 135 -250 13 -25 63 -117 110 -205 46 -88 96 -180 110 -205 13 -25 56
-106 95 -180 38 -74 87 -164 107 -200 63 -109 116 -221 145 -305 26 -76 27
-86 21 -205 -4 -69 -9 -141 -11 -160 -2 -19 -7 -55 -10 -80 -6 -46 -67 -401
-130 -760 -41 -237 -79 -424 -94 -462 -16 -43 -147 -97 -386 -158 -226 -58
-335 -65 -335 -20 0 49 -119 301 -203 430 -23 36 -73 110 -112 165 -38 55 -82
119 -97 141 -37 58 -53 67 -44 23 12 -60 57 -310 82 -459 32 -195 32 -243 -7
-335 -42 -101 -45 -103 -126 -70 -237 95 -619 203 -652 185 -26 -14 -32 -47
-13 -69 14 -16 124 -56 184 -67 16 -4 327 -114 423 -151 30 -11 50 -25 49 -34
-1 -18 -84 -129 -96 -129 -4 0 -48 20 -96 44 -144 72 -352 131 -437 124 -35
-3 -40 -6 -43 -30 -4 -32 2 -35 128 -66 122 -29 345 -119 388 -157 5 -4 -15
-40 -31 -57 -7 -7 -34 -44 -61 -81 l-48 -68 -26 17 c-136 90 -284 155 -357
157 -48 2 -50 1 -53 -26 -3 -24 2 -30 45 -48 90 -38 208 -98 271 -139 l63 -40
-47 -68 c-27 -37 -64 -88 -84 -114 -19 -26 -50 -68 -68 -93 -18 -25 -36 -45
-40 -45 -5 0 -18 9 -30 20 -12 11 -24 20 -28 20 -4 0 -36 22 -73 49 -36 26
-109 77 -161 111 -52 35 -96 67 -98 72 -2 4 -8 8 -14 8 -6 0 -32 16 -59 36
l-49 36 0 282 0 283 93 105 c50 57 164 187 252 288 88 102 169 193 179 204 23
23 33 104 16 135 -6 12 -26 31 -43 41 -31 19 -55 20 -588 20 l-556 0 -33 -22
c-71 -48 -65 -118 17 -216 31 -37 60 -69 63 -72 6 -5 255 -288 363 -413 l67
-78 -2 -277 -3 -276 -60 -43 c-118 -85 -439 -305 -449 -309 -11 -3 -29 19
-159 199 l-79 109 23 24 c12 13 28 24 35 24 7 0 14 4 16 8 5 13 127 77 213
113 79 32 95 43 95 66 0 19 -29 42 -48 38 -84 -18 -238 -87 -340 -151 -29 -19
-54 -34 -56 -34 -8 0 -136 188 -136 199 0 27 238 126 410 170 109 28 128 42
99 78 -33 39 -317 -28 -478 -113 -46 -24 -89 -44 -95 -44 -9 0 -91 105 -104
131 -6 14 341 142 536 199 127 37 155 59 134 105 -7 14 -18 25 -26 25 -54 0
-423 -112 -645 -195 l-73 -28 -17 21 c-9 12 -27 50 -40 85 -26 66 -26 71 5
394 3 23 22 126 43 228 21 102 35 185 31 185 -4 0 -66 -82 -138 -183 -173
-243 -297 -446 -326 -539 -9 -30 -67 -51 -151 -56 -67 -4 -102 1 -210 28 -133
33 -249 68 -297 90 -21 10 -32 29 -56 104 -32 98 -35 111 -86 376 -37 189 -42
222 -112 648 -72 449 -72 487 -4 652 26 63 191 383 278 540 14 25 56 104 95
175 38 72 86 162 107 200 39 74 72 135 203 380 153 288 195 361 279 492 84
131 117 149 369 209 698 163 1006 232 1119 249 25 4 65 11 90 15 69 12 77 11
231 -9z m-51 -5051 c20 -19 69 -64 110 -100 41 -36 93 -83 116 -105 22 -22 64
-62 93 -88 28 -26 51 -51 51 -55 0 -11 -60 -67 -86 -80 -53 -28 -247 -44 -449
-39 -110 3 -218 10 -239 16 -44 11 -143 101 -132 119 4 6 106 102 227 212
l221 202 26 -24 c15 -12 43 -39 62 -58z"/>
<path d="M3805 7838 c-85 -46 -155 -190 -155 -317 0 -82 43 -138 95 -125 22 5
73 49 100 85 34 46 65 154 65 224 0 66 -15 110 -45 129 -28 19 -33 19 -60 4z"/>
<path d="M3030 7793 c-64 -21 -116 -69 -152 -142 -27 -55 -36 -180 -18 -237
52 -163 203 -240 322 -165 123 78 169 256 104 397 -31 67 -68 109 -119 133
-40 20 -102 26 -137 14z"/>
<path d="M2740 7129 c-44 -18 -90 -59 -111 -101 -82 -162 94 -337 258 -257 53
26 88 69 104 130 38 140 -117 281 -251 228z"/>
<path d="M3395 6984 c-44 -22 -65 -54 -65 -99 0 -47 19 -79 60 -100 59 -31
150 -12 184 37 21 30 20 97 -2 124 -40 51 -120 68 -177 38z"/>
<path d="M3545 6109 c-121 -4 -391 -10 -600 -13 -379 -7 -454 -11 -438 -27 7
-7 549 -91 676 -104 55 -6 57 -7 57 -36 0 -80 89 -160 162 -145 50 10 96 44
114 87 20 44 16 43 103 28 119 -19 194 -84 221 -191 11 -43 9 -58 -35 -210
-25 -90 -58 -203 -72 -252 -20 -70 -24 -104 -21 -155 6 -72 29 -131 60 -150
19 -12 114 -18 124 -8 3 2 7 54 10 113 5 85 18 158 61 334 53 215 56 234 65
422 11 215 8 252 -23 292 -20 25 -23 26 -132 24 -62 -1 -211 -5 -332 -9z"/>
<path d="M4914 6099 c-18 -20 -19 -38 -17 -244 2 -244 5 -270 74 -525 34 -128
42 -177 46 -277 6 -137 0 -128 88 -124 48 3 63 14 86 67 37 83 35 137 -9 285
-23 74 -45 152 -51 174 -5 22 -19 73 -30 112 -28 97 -27 129 10 202 38 75 81
106 177 127 99 20 106 19 121 -22 15 -42 82 -94 122 -94 82 0 149 68 149 150
0 30 5 32 135 45 126 13 615 90 615 97 0 4 -8 9 -17 9 -10 1 -29 3 -43 4 -14
2 -185 6 -380 9 -195 4 -485 11 -645 16 -412 14 -408 14 -431 -11z"/>
<path d="M6632 5325 c-16 -13 -42 -52 -58 -87 -26 -57 -29 -73 -29 -168 0 -88
3 -110 20 -135 25 -39 34 -45 69 -45 87 0 169 211 136 350 -15 61 -52 110 -85
110 -13 0 -37 -11 -53 -25z"/>
<path d="M6253 4893 c-13 -2 -37 -18 -54 -36 -28 -28 -31 -35 -25 -76 15 -112
170 -167 237 -83 30 38 23 112 -15 151 -24 25 -88 53 -112 50 -5 -1 -19 -4
-31 -6z"/>
<path d="M6605 4728 c-103 -37 -154 -156 -110 -260 25 -62 109 -118 175 -118
65 0 152 58 176 117 31 73 11 171 -45 223 -44 42 -135 59 -196 38z"/>
<path d="M4275 1250 c0 -509 1 -717 2 -462 2 254 2 670 0 925 -1 254 -2 46 -2
-463z"/>
<path d="M4315 1250 c0 -509 1 -717 2 -462 2 254 2 670 0 925 -1 254 -2 46 -2
-463z"/>
<path d="M624 1891 c-22 -10 -52 -33 -67 -51 -58 -69 -57 -56 -57 -645 l0
-542 26 -27 c22 -22 36 -26 81 -26 44 0 59 5 81 25 26 24 27 30 30 138 2 61 8
118 14 125 6 6 32 12 58 12 26 0 63 3 81 7 45 9 121 86 137 139 16 56 17 660
1 715 -16 52 -61 103 -112 128 -58 28 -211 29 -273 2z m171 -221 c4 -6 6 -126
6 -266 0 -263 -3 -284 -40 -284 -39 0 -41 16 -41 285 0 144 3 265 7 268 10 11
61 8 68 -3z"/>
<path d="M1235 1893 c-48 -25 -86 -65 -106 -111 -17 -39 -19 -70 -19 -281 l0
-238 27 -27 c24 -24 33 -27 87 -24 56 3 62 5 83 37 22 33 23 42 23 231 0 171
2 199 16 204 28 11 52 6 58 -10 8 -20 8 -518 0 -538 -5 -12 -20 -16 -61 -16
-101 0 -191 -61 -221 -149 -20 -58 -15 -194 9 -246 43 -91 110 -125 243 -125
80 0 97 4 141 28 34 18 59 42 80 76 l30 49 3 486 c2 314 0 498 -7 521 -15 49
-67 109 -115 131 -54 25 -226 26 -271 2z"/>
<path d="M1845 1893 c-47 -24 -86 -64 -106 -108 -17 -37 -19 -76 -19 -586 l0
-546 26 -27 c22 -22 36 -26 81 -26 59 0 84 15 102 63 7 19 11 197 11 522 0
440 2 494 16 499 28 11 52 6 58 -10 3 -9 6 -103 6 -209 l0 -193 26 -31 c23
-28 31 -31 84 -31 53 0 61 3 84 31 l26 31 0 219 c0 242 -7 289 -51 342 -47 57
-103 77 -216 77 -69 -1 -107 -5 -128 -17z"/>
<path d="M2351 1884 c-21 -26 -21 -35 -21 -629 l0 -602 26 -27 c26 -26 28 -26
173 -26 120 0 153 4 186 19 54 24 106 81 122 133 17 56 19 937 2 1002 -14 56
-58 109 -112 135 -38 19 -62 21 -199 21 l-157 0 -20 -26z m277 -614 c1 -223 0
-415 -3 -428 -5 -19 -11 -23 -38 -20 l-32 3 -3 415 c-1 228 0 421 3 428 3 8
17 12 37 10 l33 -3 3 -405z"/>
<path d="M2961 1884 c-21 -26 -21 -35 -21 -573 0 -508 2 -549 19 -586 21 -46
67 -89 118 -110 54 -23 204 -20 251 4 60 32 92 66 113 120 18 48 19 82 19 579
0 479 -2 530 -17 552 -25 36 -32 40 -95 40 -51 0 -59 -3 -82 -31 l-26 -31 0
-501 c0 -276 -4 -508 -9 -515 -5 -8 -21 -12 -37 -10 l-29 3 -5 517 -5 516 -24
26 c-21 23 -33 26 -87 26 -56 0 -65 -3 -83 -26z"/>
<path d="M3650 1888 c-51 -29 -77 -56 -100 -103 -19 -39 -20 -61 -20 -384 0
-387 0 -385 80 -454 44 -37 75 -47 150 -47 53 0 73 -16 68 -52 -3 -22 -7 -23
-127 -28 -119 -5 -124 -6 -147 -33 -36 -41 -34 -124 2 -161 26 -26 28 -26 176
-26 167 0 196 8 261 75 41 42 57 96 57 191 0 85 -15 136 -54 179 -47 52 -97
75 -165 75 -37 0 -63 5 -70 14 -8 9 -11 91 -9 277 l3 264 29 3 c16 2 33 -1 38
-6 5 -5 9 -93 8 -205 l-1 -195 27 -31 c23 -28 31 -31 82 -31 60 1 81 11 100
47 16 28 16 437 1 497 -14 56 -62 114 -113 137 -60 27 -227 26 -276 -3z"/>
<path d="M5006 1798 c-84 -212 -126 -330 -120 -340 4 -6 3 -8 -3 -5 -5 3 -38
-66 -74 -160 -35 -91 -71 -184 -80 -207 -128 -330 -159 -417 -153 -427 4 -8 3
-9 -4 -5 -7 4 -12 3 -12 -3 0 -5 -3 -17 -6 -25 -6 -15 9 -16 147 -14 l152 3
43 120 42 120 272 0 273 0 47 -120 47 -120 155 -3 c153 -3 156 -3 151 17 -3
12 -10 18 -16 14 -5 -3 -7 -2 -4 4 7 10 -17 72 -110 285 -9 20 -21 34 -26 31
-6 -4 -7 -1 -3 6 10 16 -85 242 -98 234 -5 -3 -6 -1 -3 4 10 15 -53 164 -66
156 -6 -3 -7 -1 -3 6 10 15 -45 142 -58 134 -5 -4 -6 -1 -1 6 4 7 3 23 -3 34
-6 12 -27 60 -47 107 -21 47 -48 109 -60 138 l-24 52 -169 0 -169 0 -17 -42z
m292 -482 c50 -127 92 -236 92 -242 0 -5 -73 -9 -178 -9 -110 1 -180 -3 -184
-10 -5 -6 -8 -3 -8 7 0 9 -3 25 -6 35 -4 11 -3 14 3 6 5 -7 39 74 92 218 46
126 86 229 90 229 3 -1 48 -106 99 -234z"/>
<path d="M5970 1226 l0 -616 145 0 145 0 0 256 c0 167 3 253 10 249 6 -3 10 0
10 7 0 8 3 9 8 3 4 -5 31 -11 61 -13 108 -7 144 -52 261 -322 l75 -175 162 -3
162 -2 -55 122 c-31 68 -62 140 -71 160 -8 21 -19 35 -24 32 -5 -3 -6 2 -3 10
3 8 -13 49 -35 90 -50 89 -71 116 -93 119 -9 2 -23 9 -32 16 -8 7 -21 9 -28 5
-10 -5 -10 -4 -1 6 10 11 16 10 33 -5 11 -10 20 -14 20 -9 0 5 -10 15 -22 23
-21 13 -21 14 13 28 40 17 81 52 73 65 -3 5 -1 7 4 6 15 -5 64 53 58 69 -3 8
-2 12 3 9 11 -7 29 41 37 103 10 80 -47 254 -78 235 -7 -4 -8 -2 -4 4 4 7 2
12 -4 12 -6 0 -9 4 -5 9 7 12 -30 41 -91 71 -27 13 -58 28 -69 34 -13 7 -134
12 -342 14 l-323 3 0 -615z m550 375 c92 -43 88 -208 -7 -247 -20 -9 -82 -17
-144 -20 l-109 -5 0 144 c0 79 2 146 4 148 3 2 53 3 113 1 73 -3 119 -9 143
-21z"/>
<path d="M7100 1225 l0 -615 145 0 145 0 0 392 0 392 36 -42 c20 -23 40 -39
46 -36 7 4 8 2 4 -5 -10 -15 172 -233 186 -225 7 4 8 2 4 -5 -10 -15 13 -43
28 -34 6 3 8 3 4 -2 -15 -16 13 -45 42 -45 27 0 58 31 52 52 -1 5 2 7 7 5 14
-4 103 102 95 114 -4 8 -3 9 4 5 6 -3 16 2 22 13 6 12 20 31 33 43 26 27 100
114 121 143 14 18 15 -22 16 -372 l0 -393 145 0 145 0 0 615 0 615 -130 0
-129 0 -42 -55 c-23 -30 -46 -55 -51 -55 -6 0 -8 -7 -4 -15 3 -8 1 -14 -3 -12
-14 4 -211 -237 -206 -251 3 -8 0 -10 -6 -6 -12 7 -58 -43 -59 -65 0 -7 -30
22 -66 65 -36 44 -69 78 -75 76 -5 -1 -8 1 -8 5 3 21 -3 24 -18 12 -16 -13
-17 -12 -5 3 12 15 5 28 -61 105 -41 48 -79 87 -85 86 -6 -2 -9 3 -6 10 2 7
-6 22 -18 33 -23 19 -23 19 -8 -1 14 -18 14 -19 -2 -6 -10 7 -15 18 -12 23 3
5 -2 18 -12 29 -15 17 -31 19 -146 19 l-128 0 0 -615z"/>
<path d="M8543 1820 c-44 -26 -56 -54 -51 -112 6 -55 27 -84 76 -105 69 -29
152 30 152 108 0 106 -91 162 -177 109z m107 -5 c74 -38 82 -134 16 -187 -48
-39 -137 -11 -157 50 -32 98 54 182 141 137z"/>
</g>
</svg>
